<?xml version="1.0" standalone="no"?>
<!DOCTYPE svg PUBLIC "-//W3C//DTD SVG 1.1//EN" "http://www.w3.org/Graphics/SVG/1.1/DTD/svg11.dtd">
<svg xmlns="http://www.w3.org/2000/svg" width="359" height="179" viewBox="0 0 359 179" fill="none">
<path d="M269.262 0V89.4743H179.75V178.965H269.262H358.751V89.4743V0L269.262 0Z" fill="#019C50"/>
<path d="M269.263 0L0.75 0L0.75 89.4824H90.2865L90.2865 178.965H179.775V89.4824H269.263V0Z" fill="#054A26"/>
<path d="M53.458 30.1774V69.6204H42.8126V30.1774H29.5703V20.7227L66.7003 20.7227V30.1774H53.458Z" fill="white"/>
<path d="M89.2812 69.6204V20.7227L122.56 20.7227V30.1774H99.9266V40.1226H119.336V49.5773H99.9266V60.1576H122.56V69.6124H89.2812V69.6204Z" fill="white"/>
<path d="M168.286 30.1774V69.6204H157.641V30.1774H144.398V20.7227L181.528 20.7227V30.1774H168.286Z" fill="white"/>
<path d="M214.755 69.6204H204.109V20.7227H227.298C229.541 20.7227 231.575 21.1005 233.392 21.8402C235.217 22.5879 236.769 23.6491 238.047 25.0239C239.334 26.3987 240.323 28.0469 241.022 29.9603C241.722 31.8738 242.076 34.0043 242.076 36.3358C242.076 39.6482 241.336 42.5506 239.864 45.0188C238.393 47.495 236.166 49.2959 233.175 50.4135L242.775 69.6124H230.932L222.385 51.6757H214.747V69.6124L214.755 69.6204ZM225.971 42.7194C227.555 42.7194 228.809 42.3094 229.718 41.4974C230.626 40.6773 231.084 39.4794 231.084 37.8875V34.8083C231.084 33.2245 230.626 32.0185 229.718 31.1984C228.809 30.3784 227.555 29.9764 225.971 29.9764H214.763V42.7275H225.971V42.7194Z" fill="white"/>
<path d="M209.96 126.55C207.13 126.55 204.911 125.593 203.303 123.688C201.695 121.783 200.883 119.001 200.883 115.367C200.883 113.55 201.092 111.95 201.502 110.567C201.912 109.184 202.515 108.019 203.303 107.07C204.091 106.121 205.04 105.406 206.165 104.915C207.291 104.433 208.553 104.184 209.96 104.184C211.842 104.184 213.418 104.594 214.688 105.414C215.958 106.234 216.955 107.448 217.679 109.048L214.736 110.656C214.366 109.626 213.787 108.798 213.016 108.195C212.244 107.584 211.223 107.279 209.96 107.279C208.288 107.279 206.977 107.85 206.029 108.991C205.08 110.133 204.605 111.709 204.605 113.719V117.015C204.605 119.025 205.08 120.601 206.029 121.742C206.977 122.884 208.288 123.455 209.96 123.455C211.263 123.455 212.316 123.117 213.136 122.45C213.948 121.783 214.559 120.914 214.945 119.861L217.767 121.566C217.044 123.133 216.031 124.355 214.728 125.232C213.426 126.108 211.834 126.55 209.96 126.55Z" fill="white"/>
<path d="M227.438 126.557C226.32 126.557 225.307 126.364 224.382 125.97C223.465 125.576 222.685 125.013 222.042 124.282C221.398 123.55 220.908 122.657 220.554 121.62C220.2 120.575 220.031 119.417 220.031 118.138C220.031 116.859 220.208 115.693 220.554 114.656C220.908 113.611 221.398 112.726 222.042 111.994C222.685 111.263 223.465 110.7 224.382 110.306C225.299 109.912 226.32 109.719 227.438 109.719C228.556 109.719 229.569 109.912 230.494 110.306C231.41 110.7 232.191 111.263 232.834 111.994C233.477 112.726 233.968 113.619 234.322 114.656C234.675 115.702 234.844 116.859 234.844 118.138C234.844 119.417 234.667 120.583 234.322 121.62C233.968 122.665 233.477 123.55 232.834 124.282C232.191 125.013 231.41 125.576 230.494 125.97C229.577 126.364 228.556 126.557 227.438 126.557ZM227.438 123.735C228.596 123.735 229.521 123.381 230.228 122.673C230.936 121.966 231.282 120.904 231.282 119.481V116.771C231.282 115.356 230.928 114.294 230.228 113.579C229.529 112.863 228.596 112.517 227.438 112.517C226.28 112.517 225.355 112.871 224.647 113.579C223.948 114.286 223.594 115.348 223.594 116.771V119.481C223.594 120.896 223.948 121.958 224.647 122.673C225.347 123.381 226.28 123.735 227.438 123.735Z" fill="white"/>
<path d="M241.496 126.191C240.338 126.191 239.478 125.893 238.907 125.306C238.336 124.72 238.055 123.9 238.055 122.846V103.27H241.432V123.433H243.659V126.191H241.488H241.496Z" fill="white"/>
<path d="M249.808 126.191C248.651 126.191 247.79 125.893 247.219 125.306C246.649 124.72 246.367 123.9 246.367 122.846V103.27H249.744V123.433H251.971V126.191H249.8H249.808Z" fill="white"/>
<path d="M260.922 126.557C259.764 126.557 258.735 126.364 257.826 125.97C256.917 125.576 256.145 125.013 255.502 124.282C254.859 123.55 254.368 122.657 254.03 121.62C253.693 120.575 253.516 119.417 253.516 118.138C253.516 116.859 253.685 115.693 254.03 114.656C254.368 113.611 254.859 112.726 255.502 111.994C256.145 111.263 256.917 110.7 257.826 110.306C258.735 109.912 259.772 109.719 260.922 109.719C262.072 109.719 263.134 109.928 264.034 110.338C264.935 110.748 265.683 111.327 266.278 112.059C266.873 112.791 267.324 113.643 267.629 114.616C267.927 115.589 268.079 116.626 268.079 117.744V119.015H257.014V119.537C257.014 120.768 257.384 121.781 258.116 122.569C258.847 123.357 259.901 123.751 261.26 123.751C262.249 123.751 263.085 123.534 263.769 123.108C264.453 122.673 265.032 122.094 265.506 121.355L267.492 123.309C266.889 124.306 266.029 125.094 264.887 125.689C263.753 126.276 262.426 126.573 260.922 126.573V126.557ZM260.922 112.332C260.343 112.332 259.812 112.437 259.33 112.646C258.847 112.855 258.429 113.144 258.091 113.514C257.754 113.884 257.488 114.326 257.303 114.849C257.118 115.364 257.022 115.935 257.022 116.554V116.771H264.525V116.457C264.525 115.219 264.203 114.222 263.568 113.466C262.925 112.71 262.048 112.332 260.93 112.332H260.922Z" fill="white"/>
<path d="M285.322 127.696C285.322 129.369 284.678 130.631 283.4 131.475C282.121 132.319 280.031 132.745 277.145 132.745C275.826 132.745 274.7 132.657 273.784 132.48C272.867 132.303 272.111 132.054 271.524 131.724C270.937 131.395 270.503 130.993 270.238 130.518C269.973 130.044 269.836 129.497 269.836 128.878C269.836 127.986 270.077 127.294 270.568 126.804C271.05 126.305 271.725 125.968 272.594 125.783V125.445C271.372 125.051 270.769 124.223 270.769 122.969C270.769 122.141 271.05 121.506 271.605 121.063C272.16 120.621 272.835 120.308 273.615 120.115V119.994C272.666 119.544 271.934 118.909 271.428 118.089C270.921 117.277 270.672 116.32 270.672 115.227C270.672 113.579 271.227 112.244 272.328 111.231C273.43 110.218 275.022 109.711 277.088 109.711C278.222 109.711 279.195 109.88 279.999 110.21V109.776C279.999 109.052 280.168 108.489 280.513 108.087C280.859 107.685 281.382 107.484 282.105 107.484H284.582V110.21H281.301V110.861C282.025 111.335 282.58 111.954 282.974 112.702C283.368 113.458 283.561 114.294 283.561 115.227C283.561 116.859 283.006 118.177 281.888 119.174C280.771 120.179 279.179 120.678 277.12 120.678C276.332 120.678 275.633 120.597 275.014 120.428C274.604 120.573 274.242 120.774 273.928 121.031C273.615 121.289 273.462 121.626 273.462 122.036C273.462 122.47 273.655 122.776 274.049 122.969C274.443 123.154 274.998 123.25 275.721 123.25H279.685C281.671 123.25 283.102 123.644 283.995 124.44C284.879 125.236 285.33 126.321 285.33 127.704L285.322 127.696ZM282.162 128.074C282.162 127.519 281.953 127.069 281.526 126.74C281.1 126.41 280.337 126.241 279.219 126.241H273.768C273.028 126.675 272.65 127.294 272.65 128.098C272.65 128.758 272.915 129.288 273.438 129.69C273.969 130.092 274.861 130.293 276.115 130.293H278.222C280.843 130.293 282.154 129.553 282.154 128.066L282.162 128.074ZM277.112 118.217C278.101 118.217 278.873 117.992 279.42 117.55C279.967 117.108 280.24 116.417 280.24 115.492V114.873C280.24 113.94 279.967 113.257 279.42 112.815C278.873 112.373 278.101 112.147 277.112 112.147C276.123 112.147 275.352 112.373 274.805 112.815C274.258 113.257 273.985 113.948 273.985 114.873V115.492C273.985 116.425 274.258 117.108 274.805 117.55C275.352 117.992 276.123 118.217 277.112 118.217Z" fill="white"/>
<path d="M293.594 126.557C292.436 126.557 291.407 126.364 290.498 125.97C289.589 125.576 288.817 125.013 288.174 124.282C287.531 123.55 287.04 122.657 286.702 121.62C286.364 120.575 286.188 119.417 286.188 118.138C286.188 116.859 286.356 115.693 286.702 114.656C287.04 113.611 287.531 112.726 288.174 111.994C288.817 111.263 289.589 110.7 290.498 110.306C291.407 109.912 292.444 109.719 293.594 109.719C294.744 109.719 295.806 109.928 296.706 110.338C297.607 110.748 298.355 111.327 298.95 112.059C299.545 112.791 299.995 113.643 300.301 114.616C300.599 115.589 300.751 116.626 300.751 117.744V119.015H289.686V119.537C289.686 120.768 290.056 121.781 290.787 122.569C291.519 123.357 292.573 123.751 293.932 123.751C294.921 123.751 295.757 123.534 296.441 123.108C297.124 122.673 297.703 122.094 298.178 121.355L300.164 123.309C299.561 124.306 298.701 125.094 297.559 125.689C296.425 126.276 295.098 126.573 293.594 126.573V126.557ZM293.594 112.332C293.015 112.332 292.484 112.437 292.002 112.646C291.519 112.855 291.101 113.144 290.763 113.514C290.426 113.884 290.16 114.326 289.975 114.849C289.79 115.364 289.694 115.935 289.694 116.554V116.771H297.197V116.457C297.197 115.219 296.875 114.222 296.24 113.466C295.596 112.71 294.72 112.332 293.602 112.332H293.594Z" fill="white"/>
<path d="M318.102 126.557C316.984 126.557 315.971 126.364 315.046 125.97C314.129 125.576 313.349 125.013 312.706 124.282C312.062 123.55 311.572 122.657 311.218 121.62C310.864 120.575 310.695 119.417 310.695 118.138C310.695 116.859 310.872 115.693 311.218 114.656C311.572 113.611 312.062 112.726 312.706 111.994C313.349 111.263 314.129 110.7 315.046 110.306C315.963 109.912 316.984 109.719 318.102 109.719C319.22 109.719 320.233 109.912 321.158 110.306C322.075 110.7 322.855 111.263 323.498 111.994C324.141 112.726 324.632 113.619 324.986 114.656C325.34 115.702 325.508 116.859 325.508 118.138C325.508 119.417 325.331 120.583 324.986 121.62C324.632 122.665 324.141 123.55 323.498 124.282C322.855 125.013 322.075 125.576 321.158 125.97C320.241 126.364 319.22 126.557 318.102 126.557ZM318.102 123.735C319.26 123.735 320.185 123.381 320.892 122.673C321.6 121.966 321.946 120.904 321.946 119.481V116.771C321.946 115.356 321.592 114.294 320.892 113.579C320.193 112.863 319.26 112.517 318.102 112.517C316.944 112.517 316.019 112.871 315.311 113.579C314.612 114.286 314.258 115.348 314.258 116.771V119.481C314.258 120.896 314.612 121.958 315.311 122.673C316.011 123.381 316.944 123.735 318.102 123.735Z" fill="white"/>
<path d="M329.538 112.825H327.094V110.068H329.538V107.407C329.538 106.104 329.876 105.091 330.559 104.351C331.243 103.62 332.264 103.25 333.622 103.25H336.284V106.008H332.907V110.068H336.284V112.825H332.907V126.179H329.53V112.825H329.538Z" fill="white"/>
<path d="M201.852 140.309H211.429C213.223 140.309 214.638 140.815 215.659 141.828C216.681 142.842 217.195 144.193 217.195 145.889C217.195 146.693 217.083 147.385 216.858 147.948C216.633 148.519 216.343 148.985 215.989 149.339C215.635 149.701 215.233 149.966 214.783 150.143C214.324 150.32 213.882 150.425 213.448 150.473V150.658C213.882 150.682 214.365 150.778 214.887 150.971C215.418 151.156 215.909 151.454 216.359 151.856C216.809 152.258 217.195 152.773 217.501 153.408C217.815 154.035 217.967 154.807 217.967 155.716C217.967 156.625 217.831 157.397 217.549 158.16C217.268 158.924 216.882 159.584 216.383 160.147C215.885 160.702 215.298 161.144 214.614 161.465C213.93 161.787 213.191 161.948 212.386 161.948H201.852V140.317V140.309ZM205.358 149.452H210.778C211.647 149.452 212.314 149.226 212.789 148.784C213.263 148.342 213.504 147.707 213.504 146.878V145.889C213.504 145.061 213.271 144.426 212.789 143.984C212.314 143.541 211.639 143.316 210.778 143.316H205.358V149.452ZM205.358 158.932H211.373C212.282 158.932 212.998 158.699 213.512 158.217C214.027 157.742 214.284 157.059 214.284 156.174V155.121C214.284 154.236 214.027 153.553 213.512 153.078C212.998 152.604 212.282 152.363 211.373 152.363H205.358V158.932Z" fill="white"/>
<path d="M231.423 159.269H231.303C231.158 159.663 230.965 160.041 230.732 160.419C230.491 160.789 230.193 161.119 229.831 161.392C229.469 161.674 229.035 161.891 228.528 162.06C228.022 162.229 227.435 162.309 226.775 162.309C225.103 162.309 223.808 161.77 222.883 160.701C221.966 159.623 221.508 158.087 221.508 156.085V145.832H224.885V155.651C224.885 158.152 225.915 159.398 227.982 159.398C228.416 159.398 228.842 159.342 229.252 159.229C229.662 159.117 230.032 158.948 230.354 158.715C230.676 158.489 230.933 158.2 231.126 157.846C231.319 157.492 231.423 157.082 231.423 156.608V145.824H234.801V161.939H231.423V159.277V159.269Z" fill="white"/>
<path d="M244.093 162.304C242.565 162.304 241.286 162.038 240.249 161.5C239.219 160.961 238.319 160.221 237.555 159.272L239.726 157.286C240.321 158.01 240.989 158.572 241.728 158.975C242.46 159.377 243.313 159.578 244.286 159.578C245.259 159.578 246.015 159.385 246.497 159.007C246.98 158.629 247.229 158.09 247.229 157.415C247.229 156.9 247.06 156.458 246.714 156.096C246.377 155.734 245.782 155.501 244.937 155.396L243.449 155.211C241.793 155.002 240.498 154.528 239.557 153.772C238.616 153.016 238.15 151.898 238.15 150.411C238.15 149.622 238.295 148.931 238.584 148.32C238.874 147.709 239.284 147.194 239.806 146.768C240.337 146.342 240.964 146.02 241.696 145.795C242.428 145.57 243.24 145.457 244.133 145.457C245.58 145.457 246.763 145.682 247.679 146.141C248.596 146.599 249.416 147.226 250.14 148.03L248.065 150.016C247.655 149.518 247.108 149.092 246.441 148.73C245.773 148.368 245.001 148.191 244.133 148.191C243.2 148.191 242.517 148.376 242.074 148.746C241.632 149.116 241.407 149.606 241.407 150.201C241.407 150.797 241.6 151.287 241.994 151.593C242.388 151.906 243.015 152.131 243.884 152.276L245.371 152.461C247.149 152.726 248.443 153.249 249.264 154.029C250.076 154.801 250.486 155.838 250.486 157.141C250.486 157.929 250.333 158.637 250.036 159.264C249.738 159.891 249.304 160.438 248.749 160.888C248.194 161.347 247.519 161.693 246.738 161.942C245.958 162.191 245.074 162.312 244.101 162.312L244.093 162.304Z" fill="white"/>
<path d="M255.377 142.931C254.678 142.931 254.163 142.762 253.842 142.433C253.52 142.103 253.359 141.677 253.359 141.162V140.64C253.359 140.125 253.52 139.699 253.842 139.37C254.163 139.04 254.67 138.871 255.377 138.871C256.085 138.871 256.583 139.04 256.897 139.37C257.211 139.699 257.363 140.125 257.363 140.64V141.162C257.363 141.677 257.211 142.103 256.897 142.433C256.592 142.762 256.085 142.931 255.377 142.931ZM253.673 145.809H257.05V161.921H253.673V145.809Z" fill="white"/>
<path d="M261.227 161.93V145.815H264.605V148.477H264.757C265.111 147.609 265.642 146.885 266.35 146.306C267.065 145.727 268.038 145.438 269.277 145.438C270.925 145.438 272.212 145.976 273.137 147.062C274.054 148.147 274.512 149.691 274.512 151.694V161.922H271.135V152.128C271.135 149.611 270.121 148.348 268.095 148.348C267.661 148.348 267.234 148.405 266.808 148.517C266.382 148.63 266.004 148.799 265.674 149.032C265.344 149.257 265.079 149.547 264.886 149.9C264.693 150.254 264.588 150.664 264.588 151.139V161.922H261.211L261.227 161.93Z" fill="white"/>
<path d="M285.047 162.315C283.889 162.315 282.86 162.122 281.951 161.728C281.042 161.334 280.27 160.771 279.627 160.039C278.984 159.308 278.493 158.415 278.155 157.378C277.818 156.332 277.641 155.174 277.641 153.896C277.641 152.617 277.81 151.451 278.155 150.414C278.493 149.369 278.984 148.484 279.627 147.752C280.27 147.02 281.042 146.458 281.951 146.064C282.86 145.67 283.897 145.477 285.047 145.477C286.197 145.477 287.259 145.686 288.159 146.096C289.06 146.506 289.808 147.085 290.403 147.817C291.006 148.548 291.449 149.401 291.754 150.374C292.052 151.347 292.204 152.384 292.204 153.502V154.772H281.139V155.295C281.139 156.525 281.509 157.539 282.241 158.327C282.972 159.115 284.026 159.509 285.385 159.509C286.374 159.509 287.21 159.292 287.894 158.865C288.578 158.431 289.157 157.852 289.631 157.112L291.617 159.066C291.014 160.064 290.154 160.852 289.012 161.447C287.878 162.034 286.551 162.331 285.047 162.331V162.315ZM285.047 148.09C284.468 148.09 283.937 148.195 283.455 148.404C282.972 148.613 282.554 148.902 282.216 149.272C281.879 149.642 281.613 150.084 281.428 150.607C281.243 151.122 281.147 151.693 281.147 152.312V152.529H288.65V152.215C288.65 150.977 288.328 149.98 287.693 149.224C287.05 148.468 286.173 148.09 285.055 148.09H285.047Z" fill="white"/>
<path d="M300.686 162.304C299.159 162.304 297.88 162.038 296.842 161.5C295.813 160.961 294.912 160.221 294.148 159.272L296.32 157.286C296.915 158.01 297.582 158.572 298.322 158.975C299.054 159.377 299.906 159.578 300.88 159.578C301.853 159.578 302.609 159.385 303.091 159.007C303.574 158.629 303.823 158.09 303.823 157.415C303.823 156.9 303.654 156.458 303.308 156.096C302.97 155.734 302.375 155.501 301.531 155.396L300.043 155.211C298.387 155.002 297.092 154.528 296.151 153.772C295.21 153.016 294.744 151.898 294.744 150.411C294.744 149.622 294.888 148.931 295.178 148.32C295.467 147.709 295.877 147.194 296.4 146.768C296.931 146.342 297.558 146.02 298.29 145.795C299.022 145.57 299.834 145.457 300.727 145.457C302.174 145.457 303.356 145.682 304.273 146.141C305.19 146.599 306.01 147.226 306.734 148.03L304.659 150.016C304.249 149.518 303.702 149.092 303.035 148.73C302.367 148.368 301.595 148.191 300.727 148.191C299.794 148.191 299.11 148.376 298.668 148.746C298.226 149.116 298.001 149.606 298.001 150.201C298.001 150.797 298.194 151.287 298.588 151.593C298.982 151.906 299.609 152.131 300.477 152.276L301.965 152.461C303.742 152.726 305.037 153.249 305.857 154.029C306.67 154.801 307.08 155.838 307.08 157.141C307.08 157.929 306.927 158.637 306.629 159.264C306.332 159.891 305.898 160.438 305.343 160.888C304.788 161.347 304.112 161.693 303.332 161.942C302.552 162.191 301.668 162.312 300.695 162.312L300.686 162.304Z" fill="white"/>
<path d="M315.757 162.304C314.229 162.304 312.95 162.038 311.913 161.5C310.883 160.961 309.983 160.221 309.219 159.272L311.39 157.286C311.985 158.01 312.653 158.572 313.392 158.975C314.124 159.377 314.977 159.578 315.95 159.578C316.923 159.578 317.679 159.385 318.161 159.007C318.644 158.629 318.893 158.09 318.893 157.415C318.893 156.9 318.724 156.458 318.378 156.096C318.041 155.734 317.446 155.501 316.601 155.396L315.113 155.211C313.457 155.002 312.162 154.528 311.221 153.772C310.28 153.016 309.814 151.898 309.814 150.411C309.814 149.622 309.959 148.931 310.248 148.32C310.538 147.709 310.948 147.194 311.47 146.768C312.001 146.342 312.628 146.02 313.36 145.795C314.092 145.57 314.904 145.457 315.797 145.457C317.245 145.457 318.427 145.682 319.343 146.141C320.26 146.599 321.08 147.226 321.804 148.03L319.729 150.016C319.319 149.518 318.772 149.092 318.105 148.73C317.438 148.368 316.666 148.191 315.797 148.191C314.864 148.191 314.181 148.376 313.738 148.746C313.296 149.116 313.071 149.606 313.071 150.201C313.071 150.797 313.264 151.287 313.658 151.593C314.052 151.906 314.679 152.131 315.548 152.276L317.035 152.461C318.813 152.726 320.107 153.249 320.928 154.029C321.74 154.801 322.15 155.838 322.15 157.141C322.15 157.929 321.997 158.637 321.7 159.264C321.402 159.891 320.968 160.438 320.413 160.888C319.858 161.347 319.183 161.693 318.403 161.942C317.622 162.191 316.738 162.312 315.765 162.312L315.757 162.304Z" fill="white"/>
</svg>
